<svg id="Layer_1" data-name="Layer 1" xmlns="http://www.w3.org/2000/svg" viewBox="0 0 597.54 186.9"><defs><style>.cls-1{font-size:135.88px;fill:#f7b300;}.cls-1,.cls-7{font-family:Dense-Regular, Dense;}.cls-2{stroke:#f7b300;stroke-miterlimit:10;stroke-width:4px;letter-spacing:0.05em;}.cls-3,.cls-4,.cls-6{fill:#ddd;}.cls-4{letter-spacing:0em;}.cls-5{fill:#fab500;}.cls-6{fill-rule:evenodd;}.cls-7{font-size:57px;fill:#eaac00;}.cls-8{letter-spacing:0em;}.cls-9{fill:#f1a922;}</style></defs><title>logo-vector-bonadrone(1)</title><text class="cls-1" transform="translate(201.88 115.8)"><tspan class="cls-2">Bona</tspan><tspan class="cls-3" x="193.9" y="0">D</tspan><tspan class="cls-4" x="241.87" y="0">r</tspan><tspan class="cls-3" x="268.77" y="0">one</tspan></text><path class="cls-5" d="M104,83.46l-5.05,7.76a17.61,17.61,0,0,0-4.5.21L89.26,84,84.95,85.9l1.91,9a17.89,17.89,0,0,0-3,3.33l-8.88-1.58L73.19,101l7.76,5a16.18,16.18,0,0,0,.19,4.51l-7.42,5.14,1.86,4.34,9.06-1.91a16.51,16.51,0,0,0,3.33,3l-1.6,8.9,4.36,1.73,5.06-7.75a15.74,15.74,0,0,0,4.51-.2l5.15,7.42,4.32-1.84-1.91-9.06a16.81,16.81,0,0,0,3.06-3.33l8.89,1.6,1.73-4.36-7.76-5.08a16.37,16.37,0,0,0-.2-4.49L121,99.56l-1.87-4.3-9,1.91a16,16,0,0,0-3.33-3.07l1.6-8.9Zm0,26.79a7.08,7.08,0,1,1-4-9.19A7.06,7.06,0,0,1,104,110.26Z" transform="translate(-8.46 -2.05)"/><path class="cls-6" d="M21.77,166.6c36.79,28.86,82.62,33.16,123-7.38,4.19-4.23,7.71-5.45,13.52-4.16,26.19,5.93,29.45,3.23,30.67-23.73.06-1.17,0-2.35,0-4.74-2.11-43.75-21.65-70.19-56.5-81.84-13.18-4.41-19.76-10.51-22.45-24S105.1,6.92,91.74,10.1C44.53,21.37,16.63,64.93,26.36,113.44c1.78,8.89.94,14.51-6.1,21-16,14.73-15.91,18.52,1.52,32.2m30.14-15.93c15.75-3.23,30.62-6.15,45.43-9.4a29.84,29.84,0,0,1,17,1.41c9,3.19,18.12,5.85,27.53,8.85-26.6,26.07-65.59,25.77-90-.85m107.21-32.14c-11.52-10.76-23.22-21.59-34.73-32.61-3-2.85-1.9-7.16-2.56-10.81-1.6-8.85-3-17.74-4.5-26.8,30.39,9.27,45.11,34.53,41.79,70.22M97.38,82.74a24.74,24.74,0,1,1-.57,49.48,24.74,24.74,0,0,1,.57-49.48M82.25,46.63C76.39,62.85,70.81,78.68,64.94,94.37c-1.83,4.94-7.09,6.7-10.79,9.88-5.88,5.11-12,9.87-18.31,15C28.32,86.06,48.2,54.88,82.25,46.63" transform="translate(-8.46 -2.05)"/><text class="cls-7" transform="translate(204.88 171.8)">Kn<tspan class="cls-8" x="35.97" y="0">o</tspan><tspan x="52.27" y="0">wledge</tspan><tspan class="cls-9" x="148.2" y="0"> </tspan><tspan class="cls-3" x="155.72" y="0">sharing</tspan></text></svg>